<?xml version="1.0" encoding="utf-8" standalone="no"?>
<!DOCTYPE svg PUBLIC "-//W3C//DTD SVG 1.1//EN"
  "http://www.w3.org/Graphics/SVG/1.1/DTD/svg11.dtd">
<!-- Created with matplotlib (https://matplotlib.org/) -->
<svg height="288pt" version="1.1" viewBox="0 0 432 288" width="432pt" xmlns="http://www.w3.org/2000/svg" xmlns:xlink="http://www.w3.org/1999/xlink">
 <metadata>
  <rdf:RDF xmlns:cc="http://creativecommons.org/ns#" xmlns:dc="http://purl.org/dc/elements/1.1/" xmlns:rdf="http://www.w3.org/1999/02/22-rdf-syntax-ns#">
   <cc:Work>
    <dc:type rdf:resource="http://purl.org/dc/dcmitype/StillImage"/>
    <dc:date>2021-01-14T17:46:30.004841</dc:date>
    <dc:format>image/svg+xml</dc:format>
    <dc:creator>
     <cc:Agent>
      <dc:title>Matplotlib v3.3.2, https://matplotlib.org/</dc:title>
     </cc:Agent>
    </dc:creator>
   </cc:Work>
  </rdf:RDF>
 </metadata>
 <defs>
  <style type="text/css">*{stroke-linecap:butt;stroke-linejoin:round;}</style>
 </defs>
 <g id="figure_1">
  <g id="patch_1">
   <path d="M 0 288 
L 432 288 
L 432 0 
L 0 0 
z
" style="fill:none;"/>
  </g>
  <g id="axes_1">
   <g id="patch_2">
    <path d="M 54 252 
L 388.8 252 
L 388.8 34.56 
L 54 34.56 
z
" style="fill:#ffffff;"/>
   </g>
   <g id="matplotlib.axis_1">
    <g id="xtick_1">
     <g id="line2d_1">
      <defs>
       <path d="M 0 0 
L 0 3.5 
" id="m1d68a807cf" style="stroke:#000000;stroke-width:0.8;"/>
      </defs>
      <g>
       <use style="stroke:#000000;stroke-width:0.8;" x="69.218182" xlink:href="#m1d68a807cf" y="252"/>
      </g>
     </g>
     <g id="text_1">
      <!-- $\mathdefault{0}$ -->
      <g transform="translate(66.727514 266.09832)scale(0.1 -0.1)">
       <defs>
        <path d="M 42 31.640625 
C 42 37.75 41.90625 48.125 37.703125 56.109375 
C 34 63.109375 28.09375 65.59375 22.90625 65.59375 
C 18.09375 65.59375 12 63.40625 8.203125 56.203125 
C 4.203125 48.71875 3.796875 39.4375 3.796875 31.640625 
C 3.796875 25.953125 3.90625 17.28125 7 9.671875 
C 11.296875 -0.609375 19 -2 22.90625 -2 
C 27.5 -2 34.5 -0.109375 38.59375 9.375 
C 41.59375 16.28125 42 24.359375 42 31.640625 
z
M 22.90625 -0.40625 
C 16.5 -0.40625 12.703125 5.078125 11.296875 12.6875 
C 10.203125 18.5625 10.203125 27.15625 10.203125 32.75 
C 10.203125 40.4375 10.203125 46.828125 11.5 52.921875 
C 13.40625 61.390625 19 64 22.90625 64 
C 27 64 32.296875 61.296875 34.203125 53.125 
C 35.5 47.4375 35.59375 40.734375 35.59375 32.75 
C 35.59375 26.25 35.59375 18.265625 34.40625 12.375 
C 32.296875 1.484375 26.40625 -0.40625 22.90625 -0.40625 
z
" id="CMR17-48"/>
       </defs>
       <use transform="scale(0.996264)" xlink:href="#CMR17-48"/>
      </g>
     </g>
    </g>
    <g id="xtick_2">
     <g id="line2d_2">
      <g>
       <use style="stroke:#000000;stroke-width:0.8;" x="128.664205" xlink:href="#m1d68a807cf" y="252"/>
      </g>
     </g>
     <g id="text_2">
      <!-- $\mathdefault{100}$ -->
      <g transform="translate(121.192202 266.09832)scale(0.1 -0.1)">
       <defs>
        <path d="M 26.59375 63.40625 
C 26.59375 65.5 26.5 65.5 25.09375 65.5 
C 21.203125 61.1875 15.296875 59.796875 9.703125 59.796875 
C 9.40625 59.796875 8.90625 59.796875 8.796875 59.5 
C 8.703125 59.296875 8.703125 59.09375 8.703125 57 
C 11.796875 57 17 57.59375 21 59.984375 
L 21 7.203125 
C 21 3.6875 20.796875 2.5 12.203125 2.5 
L 9.203125 2.5 
L 9.203125 0 
C 14 0 19 0 23.796875 0 
C 28.59375 0 33.59375 0 38.40625 0 
L 38.40625 2.5 
L 35.40625 2.5 
C 26.796875 2.5 26.59375 3.59375 26.59375 7.15625 
z
" id="CMR17-49"/>
       </defs>
       <use transform="scale(0.996264)" xlink:href="#CMR17-49"/>
       <use transform="translate(45.690477 0)scale(0.996264)" xlink:href="#CMR17-48"/>
       <use transform="translate(91.380954 0)scale(0.996264)" xlink:href="#CMR17-48"/>
      </g>
     </g>
    </g>
    <g id="xtick_3">
     <g id="line2d_3">
      <g>
       <use style="stroke:#000000;stroke-width:0.8;" x="188.110227" xlink:href="#m1d68a807cf" y="252"/>
      </g>
     </g>
     <g id="text_3">
      <!-- $\mathdefault{200}$ -->
      <g transform="translate(180.638224 266.09832)scale(0.1 -0.1)">
       <defs>
        <path d="M 41.703125 15.453125 
L 39.90625 15.453125 
C 38.90625 8.375 38.09375 7.171875 37.703125 6.5625 
C 37.203125 5.765625 30 5.765625 28.59375 5.765625 
L 9.40625 5.765625 
C 13 9.671875 20 16.75 28.5 24.953125 
C 34.59375 30.734375 41.703125 37.53125 41.703125 47.421875 
C 41.703125 59.21875 32.296875 66 21.796875 66 
C 10.796875 66 4.09375 56.3125 4.09375 47.34375 
C 4.09375 43.4375 7 42.9375 8.203125 42.9375 
C 9.203125 42.9375 12.203125 43.546875 12.203125 47.03125 
C 12.203125 50.109375 9.59375 51 8.203125 51 
C 7.59375 51 7 50.90625 6.59375 50.703125 
C 8.5 59.21875 14.296875 63.40625 20.40625 63.40625 
C 29.09375 63.40625 34.796875 56.515625 34.796875 47.421875 
C 34.796875 38.734375 29.703125 31.25 24 24.75 
L 4.09375 2.28125 
L 4.09375 0 
L 39.296875 0 
z
" id="CMR17-50"/>
       </defs>
       <use transform="scale(0.996264)" xlink:href="#CMR17-50"/>
       <use transform="translate(45.690477 0)scale(0.996264)" xlink:href="#CMR17-48"/>
       <use transform="translate(91.380954 0)scale(0.996264)" xlink:href="#CMR17-48"/>
      </g>
     </g>
    </g>
    <g id="xtick_4">
     <g id="line2d_4">
      <g>
       <use style="stroke:#000000;stroke-width:0.8;" x="247.55625" xlink:href="#m1d68a807cf" y="252"/>
      </g>
     </g>
     <g id="text_4">
      <!-- $\mathdefault{300}$ -->
      <g transform="translate(240.084247 266.09832)scale(0.1 -0.1)">
       <defs>
        <path d="M 22.09375 33.703125 
C 31 33.703125 34.90625 25.96875 34.90625 17.03125 
C 34.90625 5 28.5 0.390625 22.703125 0.390625 
C 17.40625 0.390625 8.796875 3.03125 6.09375 10.828125 
C 6.59375 10.625 7.09375 10.625 7.59375 10.625 
C 10 10.625 11.796875 12.21875 11.796875 14.8125 
C 11.796875 17.703125 9.59375 19 7.59375 19 
C 5.90625 19 3.296875 18.203125 3.296875 14.46875 
C 3.296875 5.234375 12.296875 -2 22.90625 -2 
C 34 -2 42.5 6.71875 42.5 16.953125 
C 42.5 26.671875 34.5 33.703125 25 34.796875 
C 32.59375 36.375 39.90625 43.0625 39.90625 52.015625 
C 39.90625 59.6875 32 65.296875 23 65.296875 
C 13.90625 65.296875 5.90625 59.828125 5.90625 52.015625 
C 5.90625 48.59375 8.5 48 9.796875 48 
C 11.90625 48 13.703125 49.296875 13.703125 51.890625 
C 13.703125 54.46875 11.90625 55.765625 9.796875 55.765625 
C 9.40625 55.765625 8.90625 55.765625 8.5 55.578125 
C 11.40625 61.859375 19.296875 63 22.796875 63 
C 26.296875 63 32.90625 61.328125 32.90625 51.875 
C 32.90625 49.109375 32.5 44.1875 29.09375 39.84375 
C 26.09375 36 22.703125 36 19.40625 35.6875 
C 18.90625 35.6875 16.59375 35.453125 16.203125 35.453125 
C 15.5 35.359375 15.09375 35.265625 15.09375 34.5 
C 15.09375 33.796875 15.203125 33.703125 17.203125 33.703125 
z
" id="CMR17-51"/>
       </defs>
       <use transform="scale(0.996264)" xlink:href="#CMR17-51"/>
       <use transform="translate(45.690477 0)scale(0.996264)" xlink:href="#CMR17-48"/>
       <use transform="translate(91.380954 0)scale(0.996264)" xlink:href="#CMR17-48"/>
      </g>
     </g>
    </g>
    <g id="xtick_5">
     <g id="line2d_5">
      <g>
       <use style="stroke:#000000;stroke-width:0.8;" x="307.002273" xlink:href="#m1d68a807cf" y="252"/>
      </g>
     </g>
     <g id="text_5">
      <!-- $\mathdefault{400}$ -->
      <g transform="translate(299.53027 266.09832)scale(0.1 -0.1)">
       <defs>
        <path d="M 33.59375 64.40625 
C 33.59375 66.5 33.5 66.5 31.703125 66.5 
L 2 19.59375 
L 2 17 
L 27.796875 17 
L 27.796875 7.140625 
C 27.796875 3.5 27.59375 2.5 20.59375 2.5 
L 18.703125 2.5 
L 18.703125 0 
C 21.90625 0 27.296875 0 30.703125 0 
C 34.09375 0 39.5 0 42.703125 0 
L 42.703125 2.5 
L 40.796875 2.5 
C 33.796875 2.5 33.59375 3.5 33.59375 7.140625 
L 33.59375 17 
L 43.796875 17 
L 43.796875 19.59375 
L 33.59375 19.59375 
z
M 28.09375 57.859375 
L 28.09375 19.59375 
L 4 19.59375 
z
" id="CMR17-52"/>
       </defs>
       <use transform="scale(0.996264)" xlink:href="#CMR17-52"/>
       <use transform="translate(45.690477 0)scale(0.996264)" xlink:href="#CMR17-48"/>
       <use transform="translate(91.380954 0)scale(0.996264)" xlink:href="#CMR17-48"/>
      </g>
     </g>
    </g>
    <g id="xtick_6">
     <g id="line2d_6">
      <g>
       <use style="stroke:#000000;stroke-width:0.8;" x="366.448295" xlink:href="#m1d68a807cf" y="252"/>
      </g>
     </g>
     <g id="text_6">
      <!-- $\mathdefault{500}$ -->
      <g transform="translate(358.976293 266.09832)scale(0.1 -0.1)">
       <defs>
        <path d="M 11.40625 57.6875 
C 12.40625 57.28125 16.5 56 20.703125 56 
C 30 56 35.09375 61.109375 38 64.0625 
C 38 64.953125 38 65.5 37.40625 65.5 
C 37.296875 65.5 37.09375 65.5 36.296875 65.046875 
C 32.796875 63.40625 28.703125 62.078125 23.703125 62.078125 
C 20.703125 62.078125 16.203125 62.484375 11.296875 64.671875 
C 10.203125 65.171875 10 65.171875 9.90625 65.171875 
C 9.40625 65.171875 9.296875 65.0625 9.296875 63.078125 
L 9.296875 34.421875 
C 9.296875 32.640625 9.296875 32.140625 10.296875 32.140625 
C 10.796875 32.140625 11 32.34375 11.5 33.03125 
C 14.703125 37.515625 19.09375 39.40625 24.09375 39.40625 
C 27.59375 39.40625 35.09375 37.21875 35.09375 20.140625 
C 35.09375 16.953125 35.09375 11.171875 32.09375 6.578125 
C 29.59375 2.484375 25.703125 0.390625 21.40625 0.390625 
C 14.796875 0.390625 8.09375 5 6.296875 12.71875 
C 6.703125 12.609375 7.5 12.421875 7.90625 12.421875 
C 9.203125 12.421875 11.703125 13.125 11.703125 16.21875 
C 11.703125 18.90625 9.796875 20 7.90625 20 
C 5.59375 20 4.09375 18.59375 4.09375 15.796875 
C 4.09375 7.09375 11 -2 21.59375 -2 
C 31.90625 -2 41.703125 6.875 41.703125 19.75 
C 41.703125 31.71875 33.90625 41 24.203125 41 
C 19.09375 41 14.796875 39.109375 11.40625 35.53125 
z
" id="CMR17-53"/>
       </defs>
       <use transform="scale(0.996264)" xlink:href="#CMR17-53"/>
       <use transform="translate(45.690477 0)scale(0.996264)" xlink:href="#CMR17-48"/>
       <use transform="translate(91.380954 0)scale(0.996264)" xlink:href="#CMR17-48"/>
      </g>
     </g>
    </g>
    <g id="text_7">
     <!-- Normalized frequency -->
     <g transform="translate(172.90731 279.502994)scale(0.1 -0.1)">
      <defs>
       <path d="M 64.59375 73 
L 55.796875 73 
L 55.796875 13.296875 
L 17.703125 73 
L 7.59375 73 
L 7.59375 -0.03125 
L 16.40625 -0.03125 
L 16.40625 59.171875 
L 54.09375 -0.03125 
L 64.59375 -0.03125 
z
" id="Nimbus_Sans_L_Regular-78"/>
       <path d="M 27.203125 54 
C 12.5 54 3.59375 43.53125 3.59375 25.984375 
C 3.59375 8.453125 12.40625 -2 27.296875 -2 
C 42 -2 51 8.453125 51 25.59375 
C 51 43.625 42.296875 54 27.203125 54 
z
M 27.296875 46.28125 
C 36.703125 46.28125 42.296875 38.625 42.296875 25.703125 
C 42.296875 13.453125 36.5 5.703125 27.296875 5.703125 
C 18 5.703125 12.296875 13.359375 12.296875 25.984375 
C 12.296875 38.53125 18 46.28125 27.296875 46.28125 
z
" id="Nimbus_Sans_L_Regular-111"/>
       <path d="M 6.90625 52.484375 
L 6.90625 0 
L 15.296875 0 
L 15.296875 27.203125 
C 15.296875 34.703125 17.203125 39.609375 21.203125 42.5 
C 23.796875 44.40625 26.296875 45 32.09375 45 
L 32.09375 53.625 
C 30.703125 53.8125 30 53.8125 28.90625 53.8125 
C 23.5 53.8125 19.40625 50.625 14.59375 42.90625 
L 14.59375 52.484375 
z
" id="Nimbus_Sans_L_Regular-114"/>
       <path d="M 7 52.484375 
L 7 0 
L 15.40625 0 
L 15.40625 32.953125 
C 15.40625 40.578125 20.90625 46.6875 27.703125 46.6875 
C 33.90625 46.6875 37.40625 42.875 37.40625 36.15625 
L 37.40625 0 
L 45.796875 0 
L 45.796875 32.953125 
C 45.796875 40.578125 51.296875 46.6875 58.09375 46.6875 
C 64.203125 46.6875 67.796875 42.78125 67.796875 36.15625 
L 67.796875 0 
L 76.203125 0 
L 76.203125 39.375 
C 76.203125 48.78125 70.796875 54 61 54 
C 54 54 49.796875 51.890625 44.90625 45.984375 
C 41.796875 51.59375 37.59375 54 30.796875 54 
C 23.796875 54 19.203125 51.390625 14.703125 45.078125 
L 14.703125 52.484375 
z
" id="Nimbus_Sans_L_Regular-109"/>
       <path d="M 53.5 5.203125 
C 52.59375 5 52.203125 5 51.703125 5 
C 48.796875 5 47.203125 6.484375 47.203125 9.078125 
L 47.203125 39.765625 
C 47.203125 49.015625 40.40625 54 27.5 54 
C 19.90625 54 13.59375 51.8125 10.09375 47.90625 
C 7.703125 45.203125 6.703125 42.21875 6.5 37.03125 
L 14.90625 37.03125 
C 15.59375 43.390625 19.40625 46.28125 27.203125 46.28125 
C 34.703125 46.28125 38.90625 43.484375 38.90625 38.515625 
L 38.90625 36.328125 
C 38.90625 32.828125 36.796875 31.34375 30.203125 30.546875 
C 18.40625 29.0625 16.59375 28.65625 13.40625 27.359375 
C 7.296875 24.875 4.203125 20.1875 4.203125 13.421875 
C 4.203125 3.96875 10.796875 -2 21.40625 -2 
C 28 -2 33.296875 0.296875 39.203125 5.703125 
C 39.796875 0.390625 42.40625 -2 47.796875 -2 
C 49.5 -2 50.796875 -1.8125 53.5 -1.09375 
z
M 38.90625 16.75 
C 38.90625 13.953125 38.09375 12.265625 35.59375 9.984375 
C 32.203125 6.890625 28.09375 5.3125 23.203125 5.3125 
C 16.703125 5.3125 12.90625 8.390625 12.90625 13.65625 
C 12.90625 19.140625 16.59375 21.921875 25.5 23.21875 
C 34.296875 24.40625 36.09375 24.8125 38.90625 26.09375 
z
" id="Nimbus_Sans_L_Regular-97"/>
       <path d="M 15.203125 73 
L 6.796875 73 
L 6.796875 -0.03125 
L 15.203125 -0.03125 
z
" id="Nimbus_Sans_L_Regular-108"/>
       <path d="M 15 52.484375 
L 6.703125 52.484375 
L 6.703125 0 
L 15 0 
z
M 15 73 
L 6.59375 73 
L 6.59375 62.484375 
L 15 62.484375 
z
" id="Nimbus_Sans_L_Regular-105"/>
       <path d="M 44.296875 52.3125 
L 5.203125 52.3125 
L 5.203125 45 
L 34.40625 45 
L 3.09375 7.515625 
L 3.09375 0 
L 45.703125 0 
L 45.703125 7.3125 
L 13.203125 7.3125 
L 44.296875 44.90625 
z
" id="Nimbus_Sans_L_Regular-122"/>
       <path d="M 51.296875 23.890625 
C 51.296875 31.78125 50.703125 36.53125 49.203125 40.375 
C 45.796875 48.859375 37.796875 54 28 54 
C 13.40625 54 4 42.84375 4 25.703125 
C 4 8.546875 13.09375 -2 27.796875 -2 
C 39.796875 -2 48.09375 4.84375 50.203125 16.3125 
L 41.796875 16.3125 
C 39.5 9.34375 34.796875 5.703125 28.09375 5.703125 
C 22.796875 5.703125 18.296875 8.125 15.5 12.578125 
C 13.5 15.59375 12.796875 18.640625 12.703125 23.890625 
z
M 12.90625 31 
C 13.59375 40.265625 19.5 46.28125 27.90625 46.28125 
C 36.09375 46.28125 42.40625 39.53125 42.40625 31 
C 42.40625 31 42.40625 31 42.296875 31 
z
" id="Nimbus_Sans_L_Regular-101"/>
       <path d="M 49.5 73 
L 41.203125 73 
L 41.203125 45.890625 
C 37.703125 51.1875 32.09375 54 25.09375 54 
C 11.5 54 2.59375 43.140625 2.59375 26.484375 
C 2.59375 8.84375 11.296875 -2 25.40625 -2 
C 32.59375 -2 37.59375 0.703125 42.09375 7.203125 
L 42.09375 -0.03125 
L 49.5 -0.03125 
z
M 26.5 46.1875 
C 35.5 46.1875 41.203125 38.234375 41.203125 25.796875 
C 41.203125 13.765625 35.40625 5.8125 26.59375 5.8125 
C 17.40625 5.8125 11.296875 13.859375 11.296875 26 
C 11.296875 38.125 17.40625 46.1875 26.5 46.1875 
z
" id="Nimbus_Sans_L_Regular-100"/>
       <path d="M 25.796875 52 
L 17.09375 52 
L 17.09375 60.25 
C 17.09375 63.78125 19.09375 65.59375 22.90625 65.59375 
C 23.59375 65.59375 23.90625 65.59375 25.796875 65.59375 
L 25.796875 72.5 
C 23.90625 72.90625 22.796875 73 21.09375 73 
C 13.40625 73 8.796875 68.5625 8.796875 60.984375 
L 8.796875 52 
L 1.796875 52 
L 1.796875 45.1875 
L 8.796875 45.1875 
L 8.796875 -0.40625 
L 17.09375 -0.40625 
L 17.09375 45.1875 
L 25.796875 45.1875 
z
" id="Nimbus_Sans_L_Regular-102"/>
       <path d="M 49.5 -22 
L 49.5 52.328125 
L 42.09375 52.328125 
L 42.09375 45.296875 
C 38.203125 50.796875 32.296875 53.8125 25.40625 53.8125 
C 11.59375 53.8125 2.59375 42.421875 2.59375 24.890625 
C 2.59375 7.765625 11.203125 -2.8125 25 -2.8125 
C 32.296875 -2.8125 37.296875 -0.21875 41.203125 5.5 
L 41.203125 -22 
z
M 26.59375 46 
C 35.5 46 41.203125 37.921875 41.203125 25.1875 
C 41.203125 13.078125 35.40625 5 26.59375 5 
C 17.40625 5 11.296875 13.171875 11.296875 25.5 
C 11.296875 37.71875 17.40625 46 26.59375 46 
z
" id="Nimbus_Sans_L_Regular-113"/>
       <path d="M 48.203125 0.515625 
L 48.203125 53 
L 39.90625 53 
L 39.90625 23.109375 
C 39.90625 12.34375 34.296875 5.3125 25.59375 5.3125 
C 19 5.3125 14.796875 9.328125 14.796875 15.671875 
L 14.796875 53 
L 6.5 53 
L 6.5 12.375 
C 6.5 3.625 13 -2 23.203125 -2 
C 30.90625 -2 35.796875 0.703125 40.703125 7.625 
L 40.703125 0.515625 
z
" id="Nimbus_Sans_L_Regular-117"/>
       <path d="M 7 52.484375 
L 7 0 
L 15.40625 0 
L 15.40625 28.953125 
C 15.40625 39.671875 21 46.6875 29.59375 46.6875 
C 36.203125 46.6875 40.40625 42.671875 40.40625 36.359375 
L 40.40625 0 
L 48.703125 0 
L 48.703125 39.671875 
C 48.703125 48.390625 42.203125 54 32.09375 54 
C 24.296875 54 19.296875 50.984375 14.703125 43.6875 
L 14.703125 52.484375 
z
" id="Nimbus_Sans_L_Regular-110"/>
       <path d="M 47.09375 34.9375 
C 46.703125 40.03125 45.59375 43.328125 43.59375 46.21875 
C 40 51.109375 33.703125 54 26.40625 54 
C 12.296875 54 3.09375 42.84375 3.09375 25.5 
C 3.09375 8.65625 12.09375 -2 26.296875 -2 
C 38.796875 -2 46.703125 5.46875 47.703125 18.234375 
L 39.296875 18.234375 
C 37.90625 9.875 33.59375 5.703125 26.5 5.703125 
C 17.296875 5.703125 11.796875 13.171875 11.796875 25.5 
C 11.796875 38.53125 17.203125 46.28125 26.296875 46.28125 
C 33.296875 46.28125 37.703125 42.203125 38.703125 34.9375 
z
" id="Nimbus_Sans_L_Regular-99"/>
       <path d="M 38.796875 52.5 
L 24.296875 11.53125 
L 10.90625 52.5 
L 2 52.5 
L 19.703125 -0.328125 
L 16.5 -8.65625 
C 15.203125 -12.375 13.296875 -13.78125 9.796875 -13.78125 
C 8.59375 -13.78125 7.203125 -13.578125 5.40625 -13.171875 
L 5.40625 -20.703125 
C 7.09375 -21.59375 8.796875 -22 11 -22 
C 13.703125 -22 16.59375 -21.09375 18.796875 -19.484375 
C 21.40625 -17.578125 22.90625 -15.359375 24.5 -11.140625 
L 47.796875 52.5 
z
" id="Nimbus_Sans_L_Regular-121"/>
      </defs>
      <use transform="scale(0.996264)" xlink:href="#Nimbus_Sans_L_Regular-78"/>
      <use transform="translate(71.929985 0)scale(0.996264)" xlink:href="#Nimbus_Sans_L_Regular-111"/>
      <use transform="translate(127.321662 0)scale(0.996264)" xlink:href="#Nimbus_Sans_L_Regular-114"/>
      <use transform="translate(162.987506 0)scale(0.996264)" xlink:href="#Nimbus_Sans_L_Regular-109"/>
      <use transform="translate(245.975936 0)scale(0.996264)" xlink:href="#Nimbus_Sans_L_Regular-97"/>
      <use transform="translate(301.367613 0)scale(0.996264)" xlink:href="#Nimbus_Sans_L_Regular-108"/>
      <use transform="translate(323.484397 0)scale(0.996264)" xlink:href="#Nimbus_Sans_L_Regular-105"/>
      <use transform="translate(345.601182 0)scale(0.996264)" xlink:href="#Nimbus_Sans_L_Regular-122"/>
      <use transform="translate(393.92099 0)scale(0.996264)" xlink:href="#Nimbus_Sans_L_Regular-101"/>
      <use transform="translate(449.312667 0)scale(0.996264)" xlink:href="#Nimbus_Sans_L_Regular-100"/>
      <use transform="translate(532.399513 0)scale(0.996264)" xlink:href="#Nimbus_Sans_L_Regular-102"/>
      <use transform="translate(560.094683 0)scale(0.996264)" xlink:href="#Nimbus_Sans_L_Regular-114"/>
      <use transform="translate(593.269913 0)scale(0.996264)" xlink:href="#Nimbus_Sans_L_Regular-101"/>
      <use transform="translate(648.661589 0)scale(0.996264)" xlink:href="#Nimbus_Sans_L_Regular-113"/>
      <use transform="translate(704.053266 0)scale(0.996264)" xlink:href="#Nimbus_Sans_L_Regular-117"/>
      <use transform="translate(759.444943 0)scale(0.996264)" xlink:href="#Nimbus_Sans_L_Regular-101"/>
      <use transform="translate(814.83662 0)scale(0.996264)" xlink:href="#Nimbus_Sans_L_Regular-110"/>
      <use transform="translate(870.228297 0)scale(0.996264)" xlink:href="#Nimbus_Sans_L_Regular-99"/>
      <use transform="translate(920.041498 0)scale(0.996264)" xlink:href="#Nimbus_Sans_L_Regular-121"/>
     </g>
    </g>
   </g>
   <g id="matplotlib.axis_2">
    <g id="ytick_1">
     <g id="line2d_7">
      <defs>
       <path d="M 0 0 
L -3.5 0 
" id="mfb57cb7d4e" style="stroke:#000000;stroke-width:0.8;"/>
      </defs>
      <g>
       <use style="stroke:#000000;stroke-width:0.8;" x="54" xlink:href="#mfb57cb7d4e" y="242.341112"/>
      </g>
     </g>
     <g id="text_8">
      <!-- $\mathdefault{−20}$ -->
      <g transform="translate(29.288586 245.890272)scale(0.1 -0.1)">
       <defs>
        <path d="M 65.90625 23 
C 67.59375 23 69.40625 23 69.40625 25 
C 69.40625 27 67.59375 27 65.90625 27 
L 11.796875 27 
C 10.09375 27 8.296875 27 8.296875 25 
C 8.296875 23 10.09375 23 11.796875 23 
z
" id="CMSY10-0"/>
       </defs>
       <use transform="scale(0.996264)" xlink:href="#CMSY10-0"/>
       <use transform="translate(77.487468 0)scale(0.996264)" xlink:href="#CMR17-50"/>
       <use transform="translate(123.177945 0)scale(0.996264)" xlink:href="#CMR17-48"/>
      </g>
     </g>
    </g>
    <g id="ytick_2">
     <g id="line2d_8">
      <g>
       <use style="stroke:#000000;stroke-width:0.8;" x="54" xlink:href="#mfb57cb7d4e" y="201.082639"/>
      </g>
     </g>
     <g id="text_9">
      <!-- $\mathdefault{−10}$ -->
      <g transform="translate(29.288586 204.631799)scale(0.1 -0.1)">
       <use transform="scale(0.996264)" xlink:href="#CMSY10-0"/>
       <use transform="translate(77.487468 0)scale(0.996264)" xlink:href="#CMR17-49"/>
       <use transform="translate(123.177945 0)scale(0.996264)" xlink:href="#CMR17-48"/>
      </g>
     </g>
    </g>
    <g id="ytick_3">
     <g id="line2d_9">
      <g>
       <use style="stroke:#000000;stroke-width:0.8;" x="54" xlink:href="#mfb57cb7d4e" y="159.824165"/>
      </g>
     </g>
     <g id="text_10">
      <!-- $\mathdefault{0}$ -->
      <g transform="translate(42.018665 163.373325)scale(0.1 -0.1)">
       <use transform="scale(0.996264)" xlink:href="#CMR17-48"/>
      </g>
     </g>
    </g>
    <g id="ytick_4">
     <g id="line2d_10">
      <g>
       <use style="stroke:#000000;stroke-width:0.8;" x="54" xlink:href="#mfb57cb7d4e" y="118.565691"/>
      </g>
     </g>
     <g id="text_11">
      <!-- $\mathdefault{10}$ -->
      <g transform="translate(37.037329 122.114851)scale(0.1 -0.1)">
       <use transform="scale(0.996264)" xlink:href="#CMR17-49"/>
       <use transform="translate(45.690477 0)scale(0.996264)" xlink:href="#CMR17-48"/>
      </g>
     </g>
    </g>
    <g id="ytick_5">
     <g id="line2d_11">
      <g>
       <use style="stroke:#000000;stroke-width:0.8;" x="54" xlink:href="#mfb57cb7d4e" y="77.307218"/>
      </g>
     </g>
     <g id="text_12">
      <!-- $\mathdefault{20}$ -->
      <g transform="translate(37.037329 80.856378)scale(0.1 -0.1)">
       <use transform="scale(0.996264)" xlink:href="#CMR17-50"/>
       <use transform="translate(45.690477 0)scale(0.996264)" xlink:href="#CMR17-48"/>
      </g>
     </g>
    </g>
    <g id="ytick_6">
     <g id="line2d_12">
      <g>
       <use style="stroke:#000000;stroke-width:0.8;" x="54" xlink:href="#mfb57cb7d4e" y="36.048744"/>
      </g>
     </g>
     <g id="text_13">
      <!-- $\mathdefault{30}$ -->
      <g transform="translate(37.037329 39.597904)scale(0.1 -0.1)">
       <use transform="scale(0.996264)" xlink:href="#CMR17-51"/>
       <use transform="translate(45.690477 0)scale(0.996264)" xlink:href="#CMR17-48"/>
      </g>
     </g>
    </g>
    <g id="text_14">
     <!-- Angle (radians) -->
     <g transform="translate(23.166599 177.003132)rotate(-90)scale(0.1 -0.1)">
      <defs>
       <path d="M 47.40625 22 
L 54.90625 0 
L 65.296875 0 
L 39.703125 73 
L 27.703125 73 
L 1.703125 0 
L 11.59375 0 
L 19.296875 22 
z
M 44.796875 29.8125 
L 21.59375 29.8125 
L 33.59375 63 
z
" id="Nimbus_Sans_L_Regular-65"/>
       <path d="M 41.203125 52.203125 
L 41.203125 44.59375 
C 37 50.8125 31.90625 53.71875 25.203125 53.71875 
C 11.90625 53.71875 2.90625 42.0625 2.90625 25 
C 2.90625 16.375 5.203125 9.34375 9.5 4.3125 
C 13.40625 -0.109375 19 -2.703125 24.5 -2.703125 
C 31.09375 -2.703125 35.703125 0.09375 40.40625 6.703125 
L 40.40625 4.03125 
C 40.40625 -3 39.5 -7.265625 37.40625 -10.140625 
C 35.203125 -13.1875 30.90625 -14.984375 25.796875 -14.984375 
C 22 -14.984375 18.59375 -14 16.296875 -12.234375 
C 14.40625 -10.75 13.59375 -9.375 13.09375 -6.34375 
L 4.59375 -6.34375 
C 5.5 -16.140625 13.203125 -22 25.5 -22 
C 33.296875 -22 40 -19.484375 43.40625 -15.296875 
C 47.40625 -10.484375 48.90625 -3.890625 48.90625 8.40625 
L 48.90625 52.203125 
z
M 26.09375 46 
C 35.09375 46 40.40625 38.359375 40.40625 25.203125 
C 40.40625 12.625 35 5 26.203125 5 
C 17.09375 5 11.59375 12.75 11.59375 25.5 
C 11.59375 38.15625 17.203125 46 26.09375 46 
z
" id="Nimbus_Sans_L_Regular-103"/>
       <path d="M 23.59375 73 
C 13.59375 59.84375 7.296875 41.5625 7.296875 25.796875 
C 7.296875 9.9375 13.59375 -8.34375 23.59375 -21.5 
L 29.09375 -21.5 
C 20.296875 -7.140625 15.40625 9.734375 15.40625 25.796875 
C 15.40625 41.765625 20.296875 58.734375 29.09375 73 
z
" id="Nimbus_Sans_L_Regular-40"/>
       <path d="M 43.796875 37.921875 
C 43.703125 48.203125 36.90625 54 24.796875 54 
C 12.59375 54 4.703125 47.71875 4.703125 38.0625 
C 4.703125 29.890625 8.90625 26.015625 21.296875 23.03125 
L 29.09375 21.140625 
C 34.90625 19.734375 37.203125 17.65625 37.203125 13.875 
C 37.203125 9 32.296875 5.703125 25 5.703125 
C 20.5 5.703125 16.703125 7 14.59375 9.1875 
C 13.296875 10.6875 12.703125 12.171875 12.203125 15.84375 
L 3.40625 15.84375 
C 3.796875 3.765625 10.59375 -2 24.296875 -2 
C 37.5 -2 45.90625 4.453125 45.90625 14.515625 
C 45.90625 22.28125 41.5 26.578125 31.09375 29.0625 
L 23.09375 30.953125 
C 16.296875 32.53125 13.40625 34.734375 13.40625 38.40625 
C 13.40625 43.1875 17.703125 46.28125 24.5 46.28125 
C 31.203125 46.28125 34.796875 43.390625 35 37.921875 
z
" id="Nimbus_Sans_L_Regular-115"/>
       <path d="M 9.296875 -21.5 
C 19.296875 -8.34375 25.59375 9.9375 25.59375 25.6875 
C 25.59375 41.5625 19.296875 59.84375 9.296875 73 
L 3.796875 73 
C 12.59375 58.640625 17.5 41.765625 17.5 25.6875 
C 17.5 9.734375 12.59375 -7.25 3.796875 -21.5 
z
" id="Nimbus_Sans_L_Regular-41"/>
      </defs>
      <use transform="scale(0.996264)" xlink:href="#Nimbus_Sans_L_Regular-65"/>
      <use transform="translate(66.450031 0)scale(0.996264)" xlink:href="#Nimbus_Sans_L_Regular-110"/>
      <use transform="translate(121.841708 0)scale(0.996264)" xlink:href="#Nimbus_Sans_L_Regular-103"/>
      <use transform="translate(177.233385 0)scale(0.996264)" xlink:href="#Nimbus_Sans_L_Regular-108"/>
      <use transform="translate(199.350169 0)scale(0.996264)" xlink:href="#Nimbus_Sans_L_Regular-101"/>
      <use transform="translate(282.437016 0)scale(0.996264)" xlink:href="#Nimbus_Sans_L_Regular-40"/>
      <use transform="translate(315.612246 0)scale(0.996264)" xlink:href="#Nimbus_Sans_L_Regular-114"/>
      <use transform="translate(347.791379 0)scale(0.996264)" xlink:href="#Nimbus_Sans_L_Regular-97"/>
      <use transform="translate(403.183056 0)scale(0.996264)" xlink:href="#Nimbus_Sans_L_Regular-100"/>
      <use transform="translate(458.574733 0)scale(0.996264)" xlink:href="#Nimbus_Sans_L_Regular-105"/>
      <use transform="translate(480.691517 0)scale(0.996264)" xlink:href="#Nimbus_Sans_L_Regular-97"/>
      <use transform="translate(536.083194 0)scale(0.996264)" xlink:href="#Nimbus_Sans_L_Regular-110"/>
      <use transform="translate(591.474871 0)scale(0.996264)" xlink:href="#Nimbus_Sans_L_Regular-115"/>
      <use transform="translate(641.288071 0)scale(0.996264)" xlink:href="#Nimbus_Sans_L_Regular-41"/>
     </g>
    </g>
   </g>
   <g id="line2d_13">
    <path clip-path="url(#p07c9d5b0f0)" d="M 69.218182 176.86999 
L 69.812642 185.123828 
L 70.407102 136.078287 
L 71.001563 139.735997 
L 71.596023 175.027623 
L 72.190483 162.626039 
L 72.784943 179.662679 
L 73.379403 170.031332 
L 73.973864 141.739451 
L 74.568324 189.621364 
L 75.162784 187.201061 
L 75.757244 167.100344 
L 76.351705 113.62574 
L 76.946165 197.273566 
L 77.540625 142.105483 
L 78.135085 170.466438 
L 78.729545 147.386211 
L 79.324006 166.028494 
L 79.918466 207.187905 
L 80.512926 155.210222 
L 81.107386 146.076248 
L 81.701847 191.431662 
L 82.296307 129.221967 
L 82.890767 174.438557 
L 83.485227 117.689602 
L 84.079688 179.221906 
L 84.674148 143.941699 
L 85.268608 199.17172 
L 85.863068 123.147971 
L 86.457528 168.918055 
L 87.051989 163.856888 
L 87.646449 162.071448 
L 88.240909 181.355571 
L 88.835369 196.66577 
L 89.42983 185.979996 
L 90.02429 159.279729 
L 90.61875 173.835856 
L 91.21321 159.568641 
L 91.80767 161.157249 
L 92.402131 146.542066 
L 92.996591 94.704167 
L 93.591051 193.575272 
L 94.185511 157.741166 
L 94.779972 144.548038 
L 95.374432 167.794088 
L 95.968892 139.055094 
L 96.563352 135.671258 
L 97.157813 156.694886 
L 97.752273 173.520973 
L 98.346733 128.910496 
L 98.941193 175.395891 
L 99.535653 127.670744 
L 100.130114 125.765022 
L 100.724574 88.948016 
L 101.319034 160.830237 
L 101.913494 189.151359 
L 102.507955 172.770842 
L 103.102415 167.716397 
L 103.696875 193.527833 
L 104.291335 168.557671 
L 104.885795 168.312103 
L 105.480256 198.805452 
L 106.074716 178.412984 
L 106.669176 136.103767 
L 107.263636 128.772135 
L 107.858097 144.214186 
L 109.047017 194.052888 
L 109.641477 167.058963 
L 110.235938 207.994384 
L 110.830398 137.987338 
L 111.424858 155.91649 
L 112.019318 165.886569 
L 112.613778 128.131693 
L 113.208239 182.879771 
L 113.802699 94.23183 
L 114.397159 198.276514 
L 114.991619 142.667148 
L 115.58608 162.298862 
L 116.18054 170.858844 
L 116.775 125.429088 
L 117.36946 126.343336 
L 117.96392 162.961049 
L 118.558381 172.583606 
L 119.152841 141.686866 
L 119.747301 183.922096 
L 120.341761 147.385964 
L 120.936222 129.410474 
L 121.530682 157.862818 
L 122.125142 148.928693 
L 122.719602 164.023743 
L 123.314063 161.754628 
L 123.908523 160.042599 
L 124.502983 128.190298 
L 125.097443 186.595774 
L 125.691903 152.697611 
L 126.286364 176.243344 
L 126.880824 183.562894 
L 127.475284 151.677766 
L 128.069744 145.674498 
L 128.664205 143.93212 
L 129.258665 186.25952 
L 129.853125 157.903372 
L 130.447585 139.216826 
L 131.042045 109.854567 
L 131.636506 182.432751 
L 132.230966 185.319414 
L 132.825426 183.570815 
L 133.419886 184.579793 
L 134.014347 170.733131 
L 134.608807 143.89218 
L 135.203267 148.537766 
L 135.797727 189.038043 
L 136.392188 172.614577 
L 136.986648 151.30052 
L 137.581108 179.14569 
L 138.175568 199.365072 
L 138.770028 136.757871 
L 139.364489 166.966337 
L 139.958949 160.034064 
L 140.553409 162.359791 
L 141.147869 186.474491 
L 141.74233 187.480784 
L 142.33679 154.208396 
L 142.93125 154.552393 
L 143.52571 157.357287 
L 144.12017 156.381263 
L 144.714631 128.031108 
L 145.309091 211.793139 
L 145.903551 195.349603 
L 146.498011 150.437209 
L 147.092472 123.551705 
L 147.686932 187.532995 
L 148.875852 138.371708 
L 149.470313 199.123713 
L 150.064773 129.75464 
L 150.659233 152.84678 
L 151.253693 139.154891 
L 151.848153 191.472667 
L 152.442614 190.00704 
L 153.037074 181.111414 
L 153.631534 145.178175 
L 154.225994 205.887702 
L 154.820455 177.501286 
L 155.414915 179.1964 
L 156.009375 167.63974 
L 156.603835 182.138027 
L 157.198295 139.967021 
L 157.792756 145.856323 
L 158.387216 179.81372 
L 158.981676 178.046087 
L 159.576136 153.005923 
L 160.170597 148.287869 
L 160.765057 145.564857 
L 161.359517 144.661928 
L 161.953977 142.737295 
L 162.548438 131.021391 
L 163.142898 171.723398 
L 163.737358 163.416671 
L 164.331818 176.584257 
L 164.926278 143.245548 
L 165.520739 177.643946 
L 166.115199 168.495784 
L 166.709659 151.029685 
L 167.304119 193.28946 
L 167.89858 140.262136 
L 168.49304 165.367851 
L 169.0875 116.256565 
L 169.68196 112.891738 
L 170.27642 160.788892 
L 170.870881 149.683114 
L 171.465341 159.402736 
L 172.059801 126.441729 
L 172.654261 119.932712 
L 173.248722 195.62415 
L 173.843182 160.911366 
L 174.437642 116.669168 
L 175.032102 178.188269 
L 175.626563 154.393024 
L 176.221023 135.698041 
L 176.815483 173.945065 
L 177.409943 130.025792 
L 178.004403 169.159148 
L 178.598864 189.954158 
L 179.193324 172.647618 
L 179.787784 148.787995 
L 180.382244 149.718393 
L 180.976705 138.260115 
L 181.571165 185.666395 
L 182.165625 146.742307 
L 182.760085 173.78053 
L 183.354545 148.860081 
L 183.949006 169.438241 
L 184.543466 184.655244 
L 185.137926 159.903113 
L 185.732386 187.628501 
L 186.326847 160.411846 
L 186.921307 138.971125 
L 187.515767 142.300462 
L 188.110227 180.38691 
L 188.704688 117.252169 
L 189.299148 134.680088 
L 189.893608 168.605003 
L 190.488068 210.464984 
L 191.082528 150.42896 
L 191.676989 173.615881 
L 192.271449 95.57366 
L 192.865909 137.939117 
L 193.460369 119.09361 
L 194.05483 175.8281 
L 194.64929 135.176239 
L 195.24375 154.821633 
L 195.83821 242.116364 
L 196.43267 193.609506 
L 197.027131 173.153398 
L 197.621591 130.270135 
L 198.216051 140.82925 
L 198.810511 158.707349 
L 199.404972 143.23783 
L 199.999432 192.88935 
L 200.593892 107.946284 
L 201.188352 130.983015 
L 201.782813 204.17377 
L 202.377273 100.836972 
L 202.971733 169.958494 
L 203.566193 201.943751 
L 204.160653 178.747905 
L 204.755114 136.982234 
L 205.349574 184.264396 
L 205.944034 143.547962 
L 206.538494 147.833851 
L 207.132955 142.619103 
L 207.727415 146.001371 
L 208.321875 142.80126 
L 208.916335 152.311825 
L 209.510795 205.354427 
L 210.105256 167.823632 
L 210.699716 175.302208 
L 211.294176 139.137055 
L 211.888636 156.307115 
L 212.483097 151.435933 
L 213.077557 154.678837 
L 213.672017 177.226767 
L 214.266477 152.632752 
L 214.860938 184.256065 
L 215.455398 175.244749 
L 216.049858 168.285283 
L 216.644318 166.217344 
L 217.238778 137.429737 
L 217.833239 139.441296 
L 218.427699 146.197926 
L 219.022159 208.048777 
L 219.616619 148.184339 
L 220.21108 170.561486 
L 220.80554 167.229705 
L 221.4 174.559091 
L 221.99446 135.24701 
L 222.58892 138.327778 
L 223.183381 102.397265 
L 223.777841 179.777842 
L 224.372301 155.317572 
L 224.966761 191.310994 
L 225.561222 201.953435 
L 226.155682 134.518082 
L 226.750142 134.886443 
L 227.344602 133.263495 
L 227.939063 173.99612 
L 228.533523 159.617409 
L 229.127983 121.8423 
L 229.722443 119.682227 
L 230.911364 150.844892 
L 231.505824 104.916581 
L 233.289205 183.525281 
L 233.883665 153.409012 
L 234.478125 159.157206 
L 235.072585 128.673908 
L 235.667045 119.117026 
L 236.261506 212.647913 
L 236.855966 159.392508 
L 237.450426 159.623319 
L 238.044886 114.365973 
L 238.639347 171.484796 
L 239.233807 197.290944 
L 239.828267 126.82476 
L 241.017188 163.135489 
L 241.611648 140.480357 
L 242.206108 189.378526 
L 242.800568 160.789916 
L 243.395028 179.94098 
L 243.989489 162.74871 
L 244.583949 193.014568 
L 245.178409 142.791269 
L 245.772869 174.394681 
L 246.36733 173.776801 
L 246.96179 160.664278 
L 247.55625 173.263841 
L 248.15071 202.477484 
L 248.74517 146.012307 
L 249.339631 176.778134 
L 249.934091 184.500477 
L 250.528551 229.323217 
L 251.123011 144.095262 
L 251.717472 146.822397 
L 252.311932 169.487299 
L 252.906392 141.160756 
L 253.500852 93.207706 
L 254.095313 166.660101 
L 254.689773 119.286577 
L 255.284233 161.934134 
L 255.878693 116.687843 
L 256.473153 155.7798 
L 257.067614 154.169004 
L 257.662074 142.31816 
L 258.256534 139.771998 
L 258.850994 146.630371 
L 259.445455 125.277471 
L 260.039915 185.979914 
L 260.634375 192.851835 
L 261.228835 115.436688 
L 261.823295 158.07377 
L 262.417756 153.401031 
L 263.606676 178.657668 
L 264.201136 165.271285 
L 264.795597 169.664096 
L 265.390057 101.673114 
L 265.984517 139.201677 
L 266.578977 123.617214 
L 267.173437 173.020395 
L 267.767898 163.751063 
L 268.362358 166.809023 
L 268.956818 171.594914 
L 269.551278 181.749409 
L 270.145739 150.175079 
L 270.740199 75.134588 
L 271.334659 133.281393 
L 271.929119 178.690101 
L 272.52358 175.904592 
L 273.11804 90.067447 
L 273.7125 147.679494 
L 274.30696 146.47928 
L 274.90142 133.699096 
L 275.495881 188.737023 
L 276.090341 140.305341 
L 276.684801 131.197669 
L 277.279261 193.124296 
L 277.873722 153.679611 
L 278.468182 169.966553 
L 279.062642 116.69578 
L 279.657102 114.440567 
L 280.251562 146.640248 
L 280.846023 165.923651 
L 281.440483 150.219373 
L 282.034943 119.413655 
L 283.223864 169.862435 
L 283.818324 170.157502 
L 285.007244 149.414082 
L 285.601705 132.374476 
L 286.196165 172.287242 
L 286.790625 152.896944 
L 287.385085 144.859709 
L 287.979545 169.402678 
L 288.574006 102.231402 
L 289.168466 178.204014 
L 289.762926 133.911838 
L 290.357386 166.642828 
L 290.951847 181.038919 
L 291.546307 117.898624 
L 292.140767 152.716766 
L 293.329687 190.311374 
L 293.924148 148.686732 
L 294.518608 133.924498 
L 295.113068 137.982728 
L 295.707528 159.495224 
L 296.301989 130.864609 
L 296.896449 133.481192 
L 297.490909 177.563672 
L 298.085369 159.659703 
L 298.67983 189.792813 
L 299.27429 153.947185 
L 299.86875 159.739718 
L 300.46321 156.506134 
L 301.05767 152.349153 
L 301.652131 188.08207 
L 302.246591 165.508936 
L 302.841051 163.277368 
L 303.435511 152.12442 
L 304.029972 167.614017 
L 304.624432 209.962774 
L 305.218892 126.103089 
L 305.813352 154.636688 
L 306.407812 190.280172 
L 307.002273 164.422642 
L 307.596733 170.860913 
L 308.191193 44.443636 
L 308.785653 179.585481 
L 309.380114 168.110419 
L 309.974574 186.056915 
L 310.569034 113.997501 
L 311.163494 127.078348 
L 311.757955 159.104714 
L 312.352415 146.042756 
L 312.946875 154.419852 
L 313.541335 175.859583 
L 314.135795 152.050994 
L 314.730256 121.404523 
L 315.324716 155.002279 
L 315.919176 167.659023 
L 316.513636 157.771355 
L 317.108097 155.285319 
L 317.702557 157.097735 
L 318.297017 150.383086 
L 318.891477 168.077953 
L 319.485937 131.12794 
L 320.080398 211.159961 
L 320.674858 143.82557 
L 321.269318 113.45884 
L 321.863778 133.435477 
L 322.458239 183.525771 
L 323.052699 142.179034 
L 323.647159 145.412129 
L 324.241619 154.015963 
L 324.83608 169.379204 
L 325.43054 178.721008 
L 326.025 202.013691 
L 326.61946 164.819667 
L 327.21392 176.719638 
L 327.808381 183.387546 
L 328.402841 162.855625 
L 328.997301 156.293239 
L 329.591761 196.935066 
L 330.186222 176.017902 
L 330.780682 174.514689 
L 331.375142 199.615573 
L 331.969602 205.504413 
L 332.564062 136.181855 
L 333.158523 180.878789 
L 333.752983 138.807774 
L 334.347443 141.825711 
L 334.941903 157.604617 
L 335.536364 150.943099 
L 336.725284 109.093751 
L 337.319744 174.274886 
L 337.914205 113.712796 
L 338.508665 142.129042 
L 339.103125 187.902131 
L 339.697585 96.48922 
L 340.292045 160.812697 
L 340.886506 205.709341 
L 341.480966 161.755197 
L 342.075426 172.985235 
L 342.669886 117.047691 
L 343.264347 136.221947 
L 343.858807 127.056932 
L 344.453267 138.886922 
L 345.047727 128.676046 
L 345.642187 219.844316 
L 346.236648 152.067038 
L 346.831108 170.326748 
L 347.425568 127.294147 
L 348.020028 189.136244 
L 348.614489 142.241585 
L 349.208949 123.831343 
L 349.803409 196.536948 
L 350.397869 194.460246 
L 350.99233 168.676732 
L 351.58679 153.079754 
L 352.18125 185.194396 
L 352.77571 164.874993 
L 353.37017 113.067799 
L 353.964631 177.014714 
L 354.559091 108.597098 
L 355.153551 115.217549 
L 355.748011 126.534811 
L 356.342472 217.139933 
L 356.936932 198.669993 
L 357.531392 165.366813 
L 358.125852 189.082675 
L 358.720312 149.994089 
L 359.314773 123.45835 
L 360.503693 200.523605 
L 361.098153 106.913001 
L 361.692614 151.294118 
L 362.287074 183.115698 
L 362.881534 125.767502 
L 364.070455 188.100979 
L 364.664915 129.444034 
L 365.259375 166.075467 
L 365.853835 153.981423 
L 366.448295 172.471502 
L 367.042756 226.010066 
L 367.637216 161.341258 
L 368.231676 182.154247 
L 369.420597 139.185079 
L 370.015057 121.581069 
L 370.609517 109.170658 
L 371.203977 133.908966 
L 371.798437 180.13002 
L 372.392898 185.442695 
L 372.987358 154.914884 
L 373.581818 211.03958 
L 373.581818 211.03958 
" style="fill:none;stroke:#ff0000;stroke-linecap:square;stroke-width:1.5;"/>
   </g>
   <g id="patch_3">
    <path d="M 54 252 
L 54 34.56 
" style="fill:none;stroke:#000000;stroke-linecap:square;stroke-linejoin:miter;stroke-width:0.8;"/>
   </g>
   <g id="patch_4">
    <path d="M 388.8 252 
L 388.8 34.56 
" style="fill:none;stroke:#000000;stroke-linecap:square;stroke-linejoin:miter;stroke-width:0.8;"/>
   </g>
   <g id="patch_5">
    <path d="M 54 252 
L 388.8 252 
" style="fill:none;stroke:#000000;stroke-linecap:square;stroke-linejoin:miter;stroke-width:0.8;"/>
   </g>
   <g id="patch_6">
    <path d="M 54 34.56 
L 388.8 34.56 
" style="fill:none;stroke:#000000;stroke-linecap:square;stroke-linejoin:miter;stroke-width:0.8;"/>
   </g>
   <g id="text_15">
    <!-- Frequency response of the Biorthogonal 5.3 filters -->
    <g transform="translate(89.195602 28.56)scale(0.12 -0.12)">
     <defs>
      <path d="M 18.296875 33 
L 53.09375 33 
L 53.09375 41.21875 
L 18.296875 41.21875 
L 18.296875 64.78125 
L 57.90625 64.78125 
L 57.90625 73 
L 9 73 
L 9 -0.21875 
L 18.296875 -0.21875 
z
" id="Nimbus_Sans_L_Regular-70"/>
      <path d="M 5.40625 -22 
L 13.796875 -22 
L 13.796875 5 
C 18.203125 -0.421875 23.09375 -2.8125 29.90625 -2.8125 
C 43.40625 -2.8125 52.296875 8.15625 52.296875 24.984375 
C 52.296875 42.71875 43.703125 53.8125 29.796875 53.8125 
C 22.703125 53.8125 17 50.59375 13.09375 44.390625 
L 13.09375 52.328125 
L 5.40625 52.328125 
z
M 28.40625 46 
C 37.59375 46 43.59375 37.8125 43.59375 25.1875 
C 43.59375 13.171875 37.5 5 28.40625 5 
C 19.59375 5 13.796875 13.078125 13.796875 25.5 
C 13.796875 37.921875 19.59375 46 28.40625 46 
z
" id="Nimbus_Sans_L_Regular-112"/>
      <path d="M 25.40625 52.8125 
L 16.796875 52.8125 
L 16.796875 67 
L 8.5 67 
L 8.5 52.8125 
L 1.40625 52.8125 
L 1.40625 46 
L 8.5 46 
L 8.5 6.3125 
C 8.5 1 12.09375 -2 18.59375 -2 
C 20.59375 -2 22.59375 -1.8125 25.40625 -1.296875 
L 25.40625 5.71875 
C 24.296875 5.40625 23 5.3125 21.40625 5.3125 
C 17.796875 5.3125 16.796875 6.3125 16.796875 10.015625 
L 16.796875 46 
L 25.40625 46 
z
" id="Nimbus_Sans_L_Regular-116"/>
      <path d="M 7 73 
L 7 -0.03125 
L 15.296875 -0.03125 
L 15.296875 28.9375 
C 15.296875 39.671875 20.90625 46.6875 29.5 46.6875 
C 32.203125 46.6875 34.90625 45.78125 36.90625 44.28125 
C 39.296875 42.578125 40.296875 40.0625 40.296875 36.359375 
L 40.296875 -0.03125 
L 48.59375 -0.03125 
L 48.59375 39.65625 
C 48.59375 48.484375 42.296875 54 32.09375 54 
C 24.703125 54 20.203125 51.6875 15.296875 45.28125 
L 15.296875 73 
z
" id="Nimbus_Sans_L_Regular-104"/>
      <path d="M 7.90625 0 
L 40.796875 0 
C 47.703125 0 52.796875 1.890625 56.703125 6.0625 
C 60.296875 9.828125 62.296875 14.984375 62.296875 20.65625 
C 62.296875 29.390625 58.296875 34.640625 49 38.21875 
C 55.59375 41.359375 59.09375 46.8125 59.09375 54.296875 
C 59.09375 59.640625 57.09375 64.40625 53.296875 67.84375 
C 49.5 71.375 44.5 73 37.5 73 
L 7.90625 73 
z
M 17.203125 41.21875 
L 17.203125 64.78125 
L 35.203125 64.78125 
C 40.40625 64.78125 43.296875 64.0625 45.796875 62.140625 
C 48.40625 60.109375 49.796875 57.0625 49.796875 52.984375 
C 49.796875 49.03125 48.40625 45.890625 45.796875 43.84375 
C 43.296875 41.921875 40.40625 41.21875 35.203125 41.21875 
z
M 17.203125 8.21875 
L 17.203125 33 
L 39.90625 33 
C 44.40625 33 47.40625 31.90625 49.59375 29.546875 
C 51.796875 27.265625 53 24.109375 53 20.5625 
C 53 17.109375 51.796875 13.953125 49.59375 11.671875 
C 47.40625 9.296875 44.40625 8.21875 39.90625 8.21875 
z
" id="Nimbus_Sans_L_Regular-66"/>
      <path d="M 47.59375 71 
L 11 71 
L 5.703125 32.59375 
L 13.796875 32.59375 
C 17.90625 37.484375 21.296875 39.1875 26.796875 39.1875 
C 36.296875 39.1875 42.296875 32.6875 42.296875 22.203125 
C 42.296875 12 36.40625 5.8125 26.796875 5.8125 
C 19.09375 5.8125 14.40625 9.703125 12.296875 17.703125 
L 3.5 17.703125 
C 4.703125 11.90625 5.703125 9.09375 7.796875 6.484375 
C 11.796875 1.09375 19 -2 27 -2 
C 41.296875 -2 51.296875 8.390625 51.296875 23.390625 
C 51.296875 37.40625 42 47 28.40625 47 
C 23.40625 47 19.40625 45.703125 15.296875 42.6875 
L 18.09375 62.296875 
L 47.59375 62.296875 
z
" id="Nimbus_Sans_L_Regular-53"/>
      <path d="M 19.09375 10.421875 
L 8.703125 10.421875 
L 8.703125 0 
L 19.09375 0 
z
" id="Nimbus_Sans_L_Regular-46"/>
      <path d="M 22.09375 33 
L 23.203125 33 
L 26.90625 33 
C 36.59375 33 41.59375 28.59375 41.59375 20.0625 
C 41.59375 11.125 36.09375 5.8125 26.90625 5.8125 
C 17.296875 5.8125 12.59375 10.640625 12 21.015625 
L 3.203125 21.015625 
C 3.59375 15.28125 4.59375 11.5625 6.296875 8.34375 
C 9.90625 1.515625 16.90625 -2 26.59375 -2 
C 41.203125 -2 50.59375 6.734375 50.59375 20.203125 
C 50.59375 29.25 47.09375 34.28125 38.59375 37.203125 
C 45.203125 39.78125 48.5 44.71875 48.5 51.734375 
C 48.5 63.78125 40.40625 71 26.90625 71 
C 12.59375 71 5 63.28125 4.703125 48.359375 
L 13.5 48.359375 
C 13.59375 52.59375 14 54.953125 15.09375 57.109375 
C 17.09375 60.9375 21.5 63.296875 27 63.296875 
C 34.796875 63.296875 39.5 58.75 39.5 51.359375 
C 39.5 46.421875 37.703125 43.453125 33.796875 41.890625 
C 31.40625 40.90625 28.296875 40.5 22.09375 40.5 
z
" id="Nimbus_Sans_L_Regular-51"/>
      <path d="M 25.203125 52.484375 
L 16.5 52.484375 
L 16.5 60.453125 
C 16.5 63.859375 18.5 65.59375 22.296875 65.59375 
C 23 65.59375 23.296875 65.59375 25.203125 65.59375 
L 25.203125 72.796875 
C 23.296875 72.96875 22.203125 73 20.5 73 
C 12.796875 73 8.203125 68.65625 8.203125 61.265625 
L 8.203125 52.484375 
L 1.203125 52.484375 
L 1.203125 45.671875 
L 8.203125 45.671875 
L 8.203125 0 
L 16.5 0 
L 16.5 45.671875 
L 25.203125 45.671875 
z
M 43.59375 52.484375 
L 35.296875 52.484375 
L 35.296875 0 
L 43.59375 0 
z
M 43.59375 73 
L 35.296875 73 
L 35.296875 62.484375 
L 43.59375 62.484375 
z
" id="Nimbus_Sans_L_Regular-2"/>
     </defs>
     <use transform="scale(0.996264)" xlink:href="#Nimbus_Sans_L_Regular-70"/>
     <use transform="translate(56.388899 0)scale(0.996264)" xlink:href="#Nimbus_Sans_L_Regular-114"/>
     <use transform="translate(89.564128 0)scale(0.996264)" xlink:href="#Nimbus_Sans_L_Regular-101"/>
     <use transform="translate(144.955805 0)scale(0.996264)" xlink:href="#Nimbus_Sans_L_Regular-113"/>
     <use transform="translate(200.347482 0)scale(0.996264)" xlink:href="#Nimbus_Sans_L_Regular-117"/>
     <use transform="translate(255.739159 0)scale(0.996264)" xlink:href="#Nimbus_Sans_L_Regular-101"/>
     <use transform="translate(311.130836 0)scale(0.996264)" xlink:href="#Nimbus_Sans_L_Regular-110"/>
     <use transform="translate(366.522513 0)scale(0.996264)" xlink:href="#Nimbus_Sans_L_Regular-99"/>
     <use transform="translate(416.335714 0)scale(0.996264)" xlink:href="#Nimbus_Sans_L_Regular-121"/>
     <use transform="translate(493.844084 0)scale(0.996264)" xlink:href="#Nimbus_Sans_L_Regular-114"/>
     <use transform="translate(527.019314 0)scale(0.996264)" xlink:href="#Nimbus_Sans_L_Regular-101"/>
     <use transform="translate(582.410991 0)scale(0.996264)" xlink:href="#Nimbus_Sans_L_Regular-115"/>
     <use transform="translate(632.224191 0)scale(0.996264)" xlink:href="#Nimbus_Sans_L_Regular-112"/>
     <use transform="translate(687.615868 0)scale(0.996264)" xlink:href="#Nimbus_Sans_L_Regular-111"/>
     <use transform="translate(743.007545 0)scale(0.996264)" xlink:href="#Nimbus_Sans_L_Regular-110"/>
     <use transform="translate(798.399222 0)scale(0.996264)" xlink:href="#Nimbus_Sans_L_Regular-115"/>
     <use transform="translate(848.212422 0)scale(0.996264)" xlink:href="#Nimbus_Sans_L_Regular-101"/>
     <use transform="translate(931.299269 0)scale(0.996264)" xlink:href="#Nimbus_Sans_L_Regular-111"/>
     <use transform="translate(986.690946 0)scale(0.996264)" xlink:href="#Nimbus_Sans_L_Regular-102"/>
     <use transform="translate(1042.081285 0)scale(0.996264)" xlink:href="#Nimbus_Sans_L_Regular-116"/>
     <use transform="translate(1069.776455 0)scale(0.996264)" xlink:href="#Nimbus_Sans_L_Regular-104"/>
     <use transform="translate(1125.168132 0)scale(0.996264)" xlink:href="#Nimbus_Sans_L_Regular-101"/>
     <use transform="translate(1208.254978 0)scale(0.996264)" xlink:href="#Nimbus_Sans_L_Regular-66"/>
     <use transform="translate(1274.705009 0)scale(0.996264)" xlink:href="#Nimbus_Sans_L_Regular-105"/>
     <use transform="translate(1296.821794 0)scale(0.996264)" xlink:href="#Nimbus_Sans_L_Regular-111"/>
     <use transform="translate(1352.213471 0)scale(0.996264)" xlink:href="#Nimbus_Sans_L_Regular-114"/>
     <use transform="translate(1389.372799 0)scale(0.996264)" xlink:href="#Nimbus_Sans_L_Regular-116"/>
     <use transform="translate(1417.067968 0)scale(0.996264)" xlink:href="#Nimbus_Sans_L_Regular-104"/>
     <use transform="translate(1472.459645 0)scale(0.996264)" xlink:href="#Nimbus_Sans_L_Regular-111"/>
     <use transform="translate(1527.851322 0)scale(0.996264)" xlink:href="#Nimbus_Sans_L_Regular-103"/>
     <use transform="translate(1583.242999 0)scale(0.996264)" xlink:href="#Nimbus_Sans_L_Regular-111"/>
     <use transform="translate(1638.634676 0)scale(0.996264)" xlink:href="#Nimbus_Sans_L_Regular-110"/>
     <use transform="translate(1694.026353 0)scale(0.996264)" xlink:href="#Nimbus_Sans_L_Regular-97"/>
     <use transform="translate(1749.41803 0)scale(0.996264)" xlink:href="#Nimbus_Sans_L_Regular-108"/>
     <use transform="translate(1799.229984 0)scale(0.996264)" xlink:href="#Nimbus_Sans_L_Regular-53"/>
     <use transform="translate(1854.621661 0)scale(0.996264)" xlink:href="#Nimbus_Sans_L_Regular-46"/>
     <use transform="translate(1882.316831 0)scale(0.996264)" xlink:href="#Nimbus_Sans_L_Regular-51"/>
     <use transform="translate(1965.403677 0)scale(0.996264)" xlink:href="#Nimbus_Sans_L_Regular-2"/>
     <use transform="translate(2015.216878 0)scale(0.996264)" xlink:href="#Nimbus_Sans_L_Regular-108"/>
     <use transform="translate(2037.333662 0)scale(0.996264)" xlink:href="#Nimbus_Sans_L_Regular-116"/>
     <use transform="translate(2065.028832 0)scale(0.996264)" xlink:href="#Nimbus_Sans_L_Regular-101"/>
     <use transform="translate(2120.420509 0)scale(0.996264)" xlink:href="#Nimbus_Sans_L_Regular-114"/>
     <use transform="translate(2153.595738 0)scale(0.996264)" xlink:href="#Nimbus_Sans_L_Regular-115"/>
    </g>
   </g>
   <g id="legend_1">
    <g id="patch_7">
     <path d="M 61 247 
L 144.950647 247 
Q 146.950647 247 146.950647 245 
L 146.950647 230.279353 
Q 146.950647 228.279353 144.950647 228.279353 
L 61 228.279353 
Q 59 228.279353 59 230.279353 
L 59 245 
Q 59 247 61 247 
z
" style="fill:#ffffff;opacity:0.8;stroke:#cccccc;stroke-linejoin:miter;"/>
    </g>
    <g id="line2d_14">
     <path d="M 63 237.00934 
L 83 237.00934 
" style="fill:none;stroke:#ff0000;stroke-linecap:square;stroke-width:1.5;"/>
    </g>
    <g id="line2d_15"/>
    <g id="text_16">
     <!-- arg $K_0(e^{j\omega})$ -->
     <g transform="translate(91 240.50934)scale(0.1 -0.1)">
      <defs>
       <path d="M 50 40.171875 
C 49.90625 40.46875 49.5 41.265625 49.5 41.578125 
C 49.5 41.671875 49.59375 41.765625 51.296875 43.0625 
L 61 50.65625 
C 74.40625 61.015625 78.796875 64.5 85.703125 65.109375 
C 86.40625 65.109375 87.40625 65.109375 87.40625 66.90625 
C 87.40625 67.5 87.09375 68 86.296875 68 
C 85.203125 68 84 68 82.90625 68 
L 79.09375 68 
C 76 68 72.703125 68 69.703125 68 
C 69 68 67.796875 68 67.796875 66.203125 
C 67.796875 65.203125 68.5 65.109375 69.09375 65.109375 
C 70.203125 65 71.5 64.609375 71.5 63.21875 
C 71.5 61.234375 68.5 58.828125 67.703125 58.234375 
L 28.5 27.875 
L 36.796875 60.734375 
C 37.703125 64.109375 37.90625 65.109375 45 65.109375 
C 46.90625 65.109375 47.796875 65.109375 47.796875 67 
C 47.796875 68 46.796875 68 46.296875 68 
C 44.5 68 42.40625 68 40.5 68 
L 28.703125 68 
C 26.90625 68 24.703125 68 22.90625 68 
C 22.09375 68 21 68 21 66.109375 
C 21 65.109375 21.90625 65.109375 23.40625 65.109375 
C 29.5 65.109375 29.5 64.3125 29.5 63.21875 
C 29.5 63.03125 29.5 62.421875 29.09375 60.921875 
L 15.59375 7.375 
C 14.703125 3.890625 14.5 2.890625 7.5 2.890625 
C 5.59375 2.890625 4.59375 2.890625 4.59375 1.09375 
C 4.59375 0 5.5 0 6.09375 0 
C 8 0 10 0 11.90625 0 
L 23.59375 0 
C 25.5 0 27.59375 0 29.5 0 
C 30.296875 0 31.40625 0 31.40625 1.890625 
C 31.40625 2.890625 30.5 2.890625 29 2.890625 
C 22.90625 2.890625 22.90625 3.6875 22.90625 4.6875 
C 22.90625 5.390625 23.5 7.875 23.90625 9.46875 
L 27.796875 24.890625 
L 43 36.734375 
C 45.90625 30.359375 51.203125 17.625 55.296875 7.890625 
C 55.59375 7.28125 55.796875 6.6875 55.796875 5.984375 
C 55.796875 2.890625 51.796875 2.890625 50.90625 2.890625 
C 50 2.890625 49 2.890625 49 1 
C 49 0 50.09375 0 50.40625 0 
C 53.90625 0 57.59375 0 61.09375 0 
L 65.90625 0 
C 67.40625 0 69.09375 0 70.59375 0 
C 71.203125 0 72.296875 0 72.296875 1.890625 
C 72.296875 2.890625 71.40625 2.890625 70.40625 2.890625 
C 66.703125 2.890625 65.40625 3.6875 63.90625 7.28125 
z
" id="CMMI12-75"/>
       <path d="M 30.59375 -24.390625 
C 30.59375 -24.296875 30.59375 -24.09375 30.296875 -23.796875 
C 25.703125 -19.125 13.40625 -6.359375 13.40625 24.703125 
C 13.40625 55.765625 25.5 68.421875 30.40625 73.390625 
C 30.40625 73.5 30.59375 73.703125 30.59375 74 
C 30.59375 74.296875 30.296875 74.5 29.90625 74.5 
C 28.796875 74.5 20.296875 67.125 15.40625 56.15625 
C 10.40625 45.109375 9 34.359375 9 24.8125 
C 9 17.625 9.703125 5.484375 15.703125 -7.359375 
C 20.5 -17.734375 28.703125 -25 29.90625 -25 
C 30.40625 -25 30.59375 -24.796875 30.59375 -24.390625 
z
" id="CMR17-40"/>
       <path d="M 17.90625 23.109375 
C 20.59375 23.109375 27.40625 23.109375 32.203125 24.921875 
C 39.796875 27.859375 40.5 33.71875 40.5 35.53125 
C 40.5 39.96875 36.703125 44 30.09375 44 
C 19.59375 44 4.5 34.53125 4.5 16.765625 
C 4.5 6.28125 10.5 -1 19.59375 -1 
C 33.203125 -1 41.796875 9.515625 41.796875 10.8125 
C 41.796875 11.40625 41.203125 11.90625 40.796875 11.90625 
C 40.5 11.90625 40.40625 11.8125 39.5 10.921875 
C 33.09375 2.484375 23.59375 1 19.796875 1 
C 14.09375 1 11.09375 5.46875 11.09375 12.84375 
C 11.09375 14.234375 11.09375 16.734375 12.59375 23.109375 
z
M 13.09375 25 
C 17.40625 40.5 26.90625 42.015625 30.09375 42.015625 
C 34.5 42.015625 37.5 39.40625 37.5 35.578125 
C 37.5 25 21.5 25 17.296875 25 
z
" id="CMMI12-101"/>
       <path d="M 35 31.6875 
C 35.40625 33.296875 35.40625 34.671875 35.40625 35.078125 
C 35.40625 40.828125 31.09375 44 26.59375 44 
C 16.5 44 11.09375 29.515625 11.09375 28.828125 
C 11.09375 28.328125 11.5 27.9375 12.09375 27.9375 
C 12.90625 27.9375 13 28.328125 13.5 29.3125 
C 17.5 38.9375 22.5 42.015625 26.296875 42.015625 
C 28.40625 42.015625 29.5 40.90625 29.5 37.453125 
C 29.5 35.078125 29.203125 34.078125 28.796875 32.296875 
L 19.296875 -5.109375 
C 17.40625 -12.4375 12.703125 -18 7.203125 -18 
C 6.796875 -18 4.703125 -18 2.796875 -17 
C 5.203125 -16.5 7.09375 -14.625 7.09375 -12.25 
C 7.09375 -10.65625 5.90625 -9.0625 3.703125 -9.0625 
C 1.09375 -9.0625 -1.296875 -11.25 -1.296875 -14.234375 
C -1.296875 -18.296875 3.09375 -20 7.203125 -20 
C 14.09375 -20 23.203125 -14.9375 25.703125 -5 
z
M 39.09375 62.703125 
C 39.09375 65.203125 37 66 35.796875 66 
C 33.09375 66 30.796875 63.40625 30.796875 61.203125 
C 30.796875 59.71875 32 57.921875 34.203125 57.921875 
C 36.5 57.921875 39.09375 60.109375 39.09375 62.703125 
z
" id="CMMI12-106"/>
       <path d="M 59.40625 37.421875 
C 59.40625 40.3125 58.59375 44 55.09375 44 
C 53.09375 44 50.796875 41.515625 50.796875 39.515625 
C 50.796875 38.625 51.203125 38.03125 52 37.125 
C 53.5 35.4375 55.40625 32.75 55.40625 28.078125 
C 55.40625 24.484375 53.203125 18.8125 51.59375 15.734375 
C 48.796875 10.25 44.203125 5.578125 39 5.578125 
C 32.703125 5.578125 30.296875 9.609375 29.203125 15.234375 
C 30.296875 17.859375 32.59375 24.375 32.59375 27 
C 32.59375 28.09375 32.203125 29 30.90625 29 
C 30.203125 29 29.40625 28.609375 28.90625 27.796875 
C 27.5 25.59375 26.203125 17.640625 26.296875 15.53125 
C 24.40625 11.8125 19 5.578125 12.59375 5.578125 
C 5.90625 5.578125 4.09375 11.453125 4.09375 17.125 
C 4.09375 27.46875 10.59375 36.53125 12.40625 39.015625 
C 13.40625 40.515625 14.09375 41.515625 14.09375 41.703125 
C 14.09375 42.40625 13.703125 43.5 12.796875 43.5 
C 11.203125 43.5 10.703125 42.203125 9.90625 41.015625 
C 4.796875 33.140625 1.203125 22.09375 1.203125 12.546875 
C 1.203125 6.375 3.5 -1 11 -1 
C 19.296875 -1 24.5 6.109375 26.59375 9.90625 
C 27.40625 4.296875 30.40625 -1 37.703125 -1 
C 45.296875 -1 50.09375 5.671875 53.703125 13.734375 
C 56.296875 19.515625 59.40625 31.953125 59.40625 37.421875 
z
" id="CMMI12-33"/>
       <path d="M 26.296875 24.703125 
C 26.296875 31.875 25.59375 44.015625 19.59375 56.859375 
C 14.796875 67.234375 6.59375 74.5 5.40625 74.5 
C 5.09375 74.5 4.703125 74.390625 4.703125 73.890625 
C 4.703125 73.703125 4.796875 73.59375 4.90625 73.390625 
C 9.703125 68.40625 21.90625 55.75 21.90625 24.75 
C 21.90625 -6.359375 9.796875 -19.015625 4.90625 -24.015625 
C 4.796875 -24.203125 4.703125 -24.3125 4.703125 -24.5 
C 4.703125 -25 5.09375 -25 5.40625 -25 
C 6.5 -25 15 -17.625 19.90625 -6.65625 
C 24.90625 4.390625 26.296875 15.140625 26.296875 24.703125 
z
" id="CMR17-41"/>
      </defs>
      <use transform="scale(0.996264)" xlink:href="#Nimbus_Sans_L_Regular-97"/>
      <use transform="translate(55.391677 0)scale(0.996264)" xlink:href="#Nimbus_Sans_L_Regular-114"/>
      <use transform="translate(88.566907 0)scale(0.996264)" xlink:href="#Nimbus_Sans_L_Regular-103"/>
      <use transform="translate(171.653753 0)scale(0.996264)" xlink:href="#CMMI12-75"/>
      <use transform="translate(254.646364 -14.943915)scale(0.697382)" xlink:href="#CMR17-48"/>
      <use transform="translate(287.127678 0)scale(0.996264)" xlink:href="#CMR17-40"/>
      <use transform="translate(322.408446 0)scale(0.996264)" xlink:href="#CMMI12-101"/>
      <use transform="translate(367.620447 36.153639)scale(0.697382)" xlink:href="#CMMI12-106"/>
      <use transform="translate(399.794031 36.153639)scale(0.697382)" xlink:href="#CMMI12-33"/>
      <use transform="translate(445.314795 0)scale(0.996264)" xlink:href="#CMR17-41"/>
     </g>
    </g>
   </g>
  </g>
 </g>
 <defs>
  <clipPath id="p07c9d5b0f0">
   <rect height="217.44" width="334.8" x="54" y="34.56"/>
  </clipPath>
 </defs>
</svg>
